HIERARCHY
ROOT Hips
{
	OFFSET 0.00000 0.00000 0.00000
	CHANNELS 6 Xposition Yposition Zposition Zrotation Yrotation Xrotation 
	JOINT LHipJoint
	{
		OFFSET 0 0 0
		CHANNELS 3 Zrotation Yrotation Xrotation
		JOINT LeftUpLeg
		{
			OFFSET 1.24777 -1.64261 0.71711
			CHANNELS 3 Zrotation Yrotation Xrotation
			JOINT LeftLeg
			{
				OFFSET 2.49329 -6.85026 0.00000
				CHANNELS 3 Zrotation Yrotation Xrotation
				JOINT LeftFoot
				{
					OFFSET 2.36770 -6.50520 0.00000
					CHANNELS 3 Zrotation Yrotation Xrotation
					JOINT LeftToeBase
					{
						OFFSET 0.14820 -0.40718 2.21395
						CHANNELS 3 Zrotation Yrotation Xrotation
						End Site
						{
							OFFSET 0.00000 -0.00000 1.13491
						}
					}
				}
			}
		}
	}
	JOINT RHipJoint
	{
		OFFSET 0 0 0
		CHANNELS 3 Zrotation Yrotation Xrotation
		JOINT RightUpLeg
		{
			OFFSET -1.18320 -1.64261 0.71711
			CHANNELS 3 Zrotation Yrotation Xrotation
			JOINT RightLeg
			{
				OFFSET -2.46559 -6.77417 0.00000
				CHANNELS 3 Zrotation Yrotation Xrotation
				JOINT RightFoot
				{
					OFFSET -2.38450 -6.55136 0.00000
					CHANNELS 3 Zrotation Yrotation Xrotation
					JOINT RightToeBase
					{
						OFFSET -0.17454 -0.47954 2.02925
						CHANNELS 3 Zrotation Yrotation Xrotation
						End Site
						{
							OFFSET -0.00000 -0.00000 1.05076
						}
					}
				}
			}
		}
	}
	JOINT LowerBack
	{
		OFFSET 0 0 0
		CHANNELS 3 Zrotation Yrotation Xrotation
		JOINT Spine
		{
			OFFSET -0.02305 1.98660 0.00319
			CHANNELS 3 Zrotation Yrotation Xrotation
			JOINT Spine1
			{
				OFFSET -0.00718 1.99033 -0.00533
				CHANNELS 3 Zrotation Yrotation Xrotation
				JOINT Neck
				{
					OFFSET 0 0 0
					CHANNELS 3 Zrotation Yrotation Xrotation
					JOINT Neck1
					{
						OFFSET 0.00095 1.61015 0.10698
						CHANNELS 3 Zrotation Yrotation Xrotation
						JOINT Head
						{
							OFFSET -0.01060 1.59924 0.01317
							CHANNELS 3 Zrotation Yrotation Xrotation
							End Site
							{
								OFFSET -0.00458 1.63304 -0.00592
							}
						}
					}
				}
				JOINT LeftShoulder
				{
					OFFSET 0 0 0
					CHANNELS 3 Zrotation Yrotation Xrotation
					JOINT LeftArm
					{
						OFFSET 3.05381 1.47088 -0.01697
						CHANNELS 3 Zrotation Yrotation Xrotation
						JOINT LeftForeArm
						{
							OFFSET 4.25106 -0.00000 0.00000
							CHANNELS 3 Zrotation Yrotation Xrotation
							JOINT LeftHand
							{
								OFFSET 3.27592 -0.00000 0.00000
								CHANNELS 3 Zrotation Yrotation Xrotation
								JOINT LeftFingerBase
								{
									OFFSET 0 0 0
									CHANNELS 3 Zrotation Yrotation Xrotation
									JOINT LeftHandIndex1
									{
										OFFSET 0.65781 -0.00000 0.00000
										CHANNELS 3 Zrotation Yrotation Xrotation
										End Site
										{
											OFFSET 0.53034 -0.00000 0.00000
										}
									}
								}
								JOINT LThumb
								{
									OFFSET 0 0 0
									CHANNELS 3 Zrotation Yrotation Xrotation
									End Site
									{
										OFFSET 0.53844 -0.00000 0.53844
									}
								}
							}
						}
					}
				}
				JOINT RightShoulder
				{
					OFFSET 0 0 0
					CHANNELS 3 Zrotation Yrotation Xrotation
					JOINT RightArm
					{
						OFFSET -2.83695 1.31619 -0.22674
						CHANNELS 3 Zrotation Yrotation Xrotation
						JOINT RightForeArm
						{
							OFFSET -4.46073 -0.00000 0.00000
							CHANNELS 3 Zrotation Yrotation Xrotation
							JOINT RightHand
							{
								OFFSET -3.44416 -0.00000 0.00000
								CHANNELS 3 Zrotation Yrotation Xrotation
								JOINT RightFingerBase
								{
									OFFSET 0 0 0
									CHANNELS 3 Zrotation Yrotation Xrotation
									JOINT RightHandIndex1
									{
										OFFSET -0.61651 -0.00000 0.00000
										CHANNELS 3 Zrotation Yrotation Xrotation
										End Site
										{
											OFFSET -0.49705 -0.00000 0.00000
										}
									}
								}
								JOINT RThumb
								{
									OFFSET 0 0 0
									CHANNELS 3 Zrotation Yrotation Xrotation
									End Site
									{
										OFFSET -0.50464 -0.00000 0.50464
									}
								}
							}
						}
					}
				}
			}
		}
	}
}
MOTION
Frames: 16
Frame Time: .0083333
23.3096 16.7715 -32.1924 0 0 0 0 0 0 -21 0 0 0 0 0 0 0 0 0 0 0 0 0 0 21 0 0 0 0 0 0 0 0 0 0 0 0 0 0 0 0 0 0 0 0 0 0 -16 0 0 21 0 0 11 0 0 0 -8 0 0 0 0 0 0 0 0 0 0 0 0 0 0 0 0 0 0 0 0 8 0 0 0 0 0 0 0 0 0 0 0 0 0 0 0 0 0
23.3096 16.7715 -32.1924 -3.5451 -0.2317 9.1841 0.0000 0.0000 0.0000 -16.8848 -6.0835 -23.6488 3.8846 12.0053 35.7506 0.8176 -9.5527 -16.4746 2.3660 9.5901 27.6594 0.0000 0.0000 0.0000 25.0084 10.1250 -17.1519 -2.6657 -10.1332 29.4090 -0.9354 -3.2397 -19.7129 -0.3603 -3.8559 10.6717 4.8286 -0.9347 -7.4851 0.9523 -1.6875 -0.5080 -1.8992 -0.7694 3.5625 -0.9141 -3.0877 -10.5781 1.2035 -4.0734 3.6833 0.3104 -1.9875 3.0938 0.0000 -0.0000 0.0000 -85.1337 8.1541 46.4086 23.2165 -34.3247 -7.2600 -0.0000 0.0000 -14.2093 9.0149 11.6421 1.8337 -7.1250 0.0000 -0.0000 -16.0564 41.2141 1.5440 0.0000 -0.0000 0.0000 75.3664 -12.7761 65.3825 -103.0769 59.3439 -71.2999 0.0000 -0.0000 -19.9559 -29.4873 -17.1616 9.4728 7.1250 -0.0000 -0.0000 -1.5667 -49.5067 0.1741
23.3119 16.7749 -32.1912 -3.5528 -0.2858 9.2301 0.0000 0.0000 0.0000 -16.8845 -6.1271 -23.6401 3.8701 11.9855 35.6806 0.8259 -9.5001 -16.5406 2.3478 9.5558 27.5498 0.0000 0.0000 0.0000 25.0443 7.6933 -18.2666 -2.6853 -10.1673 29.5201 -0.9146 -1.4105 -18.6287 -0.1566 -2.5495 7.0269 4.8458 -0.8921 -7.5194 0.9436 -1.6335 -0.5217 -1.9132 -0.7423 3.5703 -0.8902 -3.1292 -10.5441 1.2138 -4.1328 3.6752 0.3066 -2.0163 3.0848 0.0000 0.0000 0.0000 -85.1068 8.1660 46.4984 23.2433 -34.3538 -7.2751 -0.0000 0.0000 -14.2210 9.0402 11.6927 1.8468 -7.1250 0.0000 -0.0000 -16.0484 41.2654 1.5222 0.0000 0.0000 0.0000 75.5070 -12.3338 65.5180 -103.8633 59.2612 -71.9762 0.0000 -0.0000 -20.7408 -28.8501 -17.3348 9.3215 7.1250 -0.0000 -0.0000 -0.9071 -49.5917 0.1027
23.3134 16.7738 -32.1910 -3.5794 -0.3370 9.2840 0.0000 0.0000 0.0000 -16.8475 -6.2653 -23.6476 3.8705 11.9860 35.6825 0.8416 -9.3805 -16.6631 2.4101 9.6726 27.9229 0.0000 0.0000 0.0000 25.0328 7.5835 -18.4161 -2.6856 -10.1679 29.5221 -0.9002 -1.2487 -18.4178 -0.1296 -2.3201 6.3912 4.8727 -0.8485 -7.5600 0.9418 -1.5796 -0.5386 -1.9254 -0.7152 3.5784 -0.8809 -3.1666 -10.5160 1.2366 -4.1858 3.6831 0.3096 -2.0417 3.0830 -0.0000 0.0000 0.0000 -85.0847 8.1698 46.5918 23.2488 -34.3598 -7.2782 -0.0000 0.0000 -14.1878 9.0660 11.6050 1.8385 -7.1250 0.0000 -0.0000 -16.0025 41.1828 1.5512 -0.0000 0.0000 0.0000 75.4853 -11.8809 65.8295 -104.3939 59.2025 -72.4321 0.0000 -0.0000 -21.7038 -28.4013 -17.2307 9.1000 7.1250 -0.0000 -0.0000 -0.4772 -49.4006 0.0518
23.3155 16.7737 -32.1924 -3.5754 -0.4212 9.3548 0.0000 0.0000 0.0000 -16.8556 -6.3177 -23.7034 3.8701 11.9855 35.6806 0.8473 -9.2866 -16.6987 2.4293 9.7082 28.0369 0.0000 0.0000 0.0000 24.9972 7.5957 -18.5094 -2.6878 -10.1717 29.5344 -0.9065 -1.1092 -18.4220 -0.1302 -2.3259 6.4071 4.9144 -0.8115 -7.5951 0.9379 -1.5351 -0.5642 -1.9487 -0.6929 3.5733 -0.8752 -3.1544 -10.4817 1.2170 -4.1684 3.6122 0.3045 -2.0341 3.0511 -0.0000 -0.0000 0.0000 -85.1201 8.1330 46.6369 23.1979 -34.3045 -7.2495 -0.0000 0.0000 -14.2149 9.0882 11.6480 1.8498 -7.1250 0.0000 -0.0000 -15.9950 41.2265 1.5327 -0.0000 -0.0000 0.0000 75.4174 -12.0186 66.2688 -106.3412 58.9666 -74.1028 0.0000 -0.0000 -21.0002 -28.3433 -17.4228 9.1748 7.1250 -0.0000 -0.0000 -0.3893 -49.6037 0.0442
23.3180 16.7710 -32.1916 -3.5557 -0.4397 9.4065 0.0000 0.0000 0.0000 -16.8927 -6.3708 -23.7554 3.8759 11.9934 35.7088 0.8500 -9.2339 -16.7151 2.4413 9.7303 28.1077 0.0000 0.0000 0.0000 24.9948 7.4628 -18.5301 -2.6826 -10.1626 29.5049 -0.9234 -1.0010 -18.5450 -0.1311 -2.3342 6.4301 4.9536 -0.7938 -7.6386 0.9234 -1.5164 -0.5802 -1.9846 -0.6830 3.5809 -0.8660 -3.1536 -10.4548 1.2060 -4.1678 3.5893 0.3000 -2.0344 3.0376 0.0000 0.0000 0.0000 -85.1421 8.1647 46.6144 23.2317 -34.3412 -7.2686 -0.0000 0.0000 -14.1846 9.0141 11.6656 1.8372 -7.1250 0.0000 -0.0000 -16.0634 41.2368 1.5354 0.0000 0.0000 0.0000 75.3834 -11.7923 67.3180 -106.5955 58.9333 -74.3207 0.0000 -0.0000 -19.0337 -28.0059 -17.6369 9.1539 7.1250 -0.0000 -0.0000 -0.0188 -49.7834 0.0022
23.3200 16.7695 -32.1917 -3.5477 -0.4968 9.4633 0.0000 0.0000 0.0000 -16.9077 -6.4381 -23.8038 3.8818 12.0014 35.7369 0.8571 -9.1493 -16.7660 2.4589 9.7627 28.2117 0.0000 0.0000 0.0000 24.9808 7.2080 -18.6650 -2.6777 -10.1541 29.4772 -0.9270 -0.7297 -18.4724 -0.1170 -2.2054 6.0735 4.9926 -0.7664 -7.6764 0.9125 -1.4848 -0.5913 -2.0151 -0.6666 3.5915 -0.8533 -3.1567 -10.4168 1.1881 -4.1720 3.5331 0.2928 -2.0374 3.0102 -0.0000 -0.0000 0.0000 -85.1623 8.1567 46.6161 23.2344 -34.3442 -7.2701 -0.0000 0.0000 -14.1735 8.9799 11.6523 1.8281 -7.1250 0.0000 -0.0000 -16.0892 41.2209 1.5445 -0.0000 -0.0000 0.0000 75.3282 -11.6197 68.1227 -107.2352 58.8473 -74.8683 0.0000 -0.0000 -17.8168 -27.5932 -17.8767 9.1145 7.1250 -0.0000 -0.0000 0.4337 -49.9776 -0.0532
23.3216 16.7678 -32.1917 -3.5402 -0.5526 9.5165 0.0000 0.0000 0.0000 -16.9217 -6.4971 -23.8516 3.8884 12.0103 35.7686 0.8631 -9.0697 -16.8085 2.4770 9.7959 28.3184 0.0000 0.0000 0.0000 24.9641 7.1098 -18.7278 -2.6722 -10.1445 29.4460 -0.9316 -0.5904 -18.4638 -0.1096 -2.1350 5.8788 5.0354 -0.7436 -7.7120 0.9019 -1.4597 -0.5978 -2.0481 -0.6532 3.6051 -0.8393 -3.1557 -10.3741 1.1625 -4.1705 3.4614 0.2835 -2.0379 2.9762 0.0000 -0.0000 0.0000 -85.1877 8.1445 46.6003 23.2366 -34.3466 -7.2714 -0.0000 0.0000 -14.1653 8.9384 11.6288 1.8159 -7.1250 0.0000 -0.0000 -16.1183 41.1943 1.5584 0.0000 -0.0000 0.0000 75.2405 -11.4787 69.0356 -107.7568 58.7744 -75.3146 0.0000 -0.0000 -16.3362 -27.1225 -18.1399 9.0609 7.1250 -0.0000 -0.0000 0.9514 -50.1860 -0.1216
23.3228 16.7664 -32.1915 -3.5359 -0.6035 9.5624 0.0000 0.0000 0.0000 -16.9316 -6.5441 -23.8890 3.8933 12.0170 35.7922 0.8676 -9.0021 -16.8392 2.4949 9.8287 28.4236 0.0000 0.0000 0.0000 24.9531 7.0219 -18.7844 -2.6681 -10.1373 29.4226 -0.9352 -0.4781 -18.4563 -0.1008 -2.0477 5.6375 5.0825 -0.7258 -7.7440 0.8924 -1.4417 -0.5986 -2.0832 -0.6430 3.6221 -0.8239 -3.1530 -10.3270 1.1308 -4.1662 3.3765 0.2724 -2.0373 2.9368 0.0000 -0.0000 0.0000 -85.2162 8.1299 46.5686 23.2389 -34.3490 -7.2727 -0.0000 0.0000 -14.1584 8.8883 11.5976 1.8008 -7.1250 0.0000 -0.0000 -16.1527 41.1594 1.5763 0.0000 -0.0000 0.0000 75.1267 -11.3679 70.0244 -108.1300 58.7208 -75.6336 0.0000 -0.0000 -14.6589 -26.5775 -18.4074 8.9769 7.1250 -0.0000 -0.0000 1.5477 -50.3847 -0.2054
23.3235 16.7654 -32.1909 -3.5381 -0.6450 9.5993 0.0000 0.0000 0.0000 -16.9323 -6.5782 -23.9160 3.8970 12.0221 35.8101 0.8711 -8.9522 -16.8630 2.5138 9.8630 28.5341 0.0000 0.0000 0.0000 24.9509 6.9574 -18.8280 -2.6649 -10.1317 29.4042 -0.9368 -0.4031 -18.4446 -0.0916 -1.9518 5.3723 5.1320 -0.7133 -7.7731 0.8852 -1.4312 -0.5931 -2.1179 -0.6364 3.6436 -0.8079 -3.1508 -10.2775 1.0971 -4.1627 3.2961 0.2605 -2.0373 2.8985 0.0000 0.0000 0.0000 -85.2434 8.1130 46.5325 23.2412 -34.3515 -7.2739 -0.0000 0.0000 -14.1542 8.8429 11.5545 1.7849 -7.1250 0.0000 -0.0000 -16.1798 41.1136 1.5979 0.0000 0.0000 0.0000 74.9926 -11.2607 71.0484 -108.3574 58.6876 -75.8279 0.0000 -0.0000 -13.0059 -25.9731 -18.6298 8.8455 7.1250 -0.0000 -0.0000 2.1975 -50.5226 -0.2992
23.3235 16.7646 -32.1899 -3.5441 -0.6774 9.6233 0.0000 0.0000 0.0000 -16.9274 -6.5998 -23.9266 3.8991 12.0249 35.8201 0.8737 -8.9207 -16.8818 2.5322 9.8963 28.6415 0.0000 0.0000 0.0000 24.9525 6.9225 -18.8544 -2.6631 -10.1286 29.3943 -0.9378 -0.3538 -18.4360 -0.0849 -1.8797 5.1732 5.1819 -0.7063 -7.7946 0.8797 -1.4279 -0.5811 -2.1518 -0.6331 3.6670 -0.7910 -3.1493 -10.2245 1.0602 -4.1602 3.2170 0.2474 -2.0377 2.8599 -0.0000 -0.0000 0.0000 -85.2698 8.0924 46.4947 23.2397 -34.3499 -7.2731 -0.0000 0.0000 -14.1546 8.8074 11.5108 1.7709 -7.1250 0.0000 -0.0000 -16.1984 41.0679 1.6187 -0.0000 -0.0000 0.0000 74.8500 -11.1603 72.0665 -108.5581 58.6578 -75.9993 0.0000 -0.0000 -11.3860 -25.3340 -18.9282 8.7308 7.1250 -0.0000 -0.0000 2.9019 -50.7348 -0.4104
23.3231 16.7642 -32.1885 -3.5553 -0.6979 9.6361 0.0000 0.0000 0.0000 -16.9143 -6.6122 -23.9233 3.8995 12.0255 35.8222 0.8757 -8.9082 -16.8982 2.5519 9.9316 28.7556 0.0000 0.0000 0.0000 24.9635 6.8904 -18.8734 -2.6627 -10.1279 29.3918 -0.9376 -0.3259 -18.4240 -0.0783 -1.8053 4.9678 5.2285 -0.7026 -7.8100 0.8773 -1.4286 -0.5668 -2.1810 -0.6318 3.6894 -0.7743 -3.1483 -10.1725 1.0257 -4.1587 3.1531 0.2350 -2.0385 2.8268 -0.0000 0.0000 0.0000 -85.2946 8.0750 46.4635 23.2355 -34.3454 -7.2707 -0.0000 0.0000 -14.1537 8.7855 11.4667 1.7598 -7.1250 0.0000 -0.0000 -16.2050 41.0233 1.6378 -0.0000 0.0000 0.0000 74.6918 -11.0873 73.0008 -108.9232 58.6028 -76.3111 0.0000 -0.0000 -10.0277 -24.6985 -19.3107 8.6478 7.1250 -0.0000 -0.0000 3.6284 -51.0356 -0.5401
23.3224 16.7641 -32.1868 -3.5700 -0.7048 9.6404 0.0000 0.0000 0.0000 -16.8958 -6.6165 -23.9101 3.8989 12.0247 35.8193 0.8773 -8.9159 -16.9139 2.5721 9.9678 28.8726 0.0000 0.0000 0.0000 24.9806 6.8683 -18.8827 -2.6630 -10.1284 29.3937 -0.9370 -0.3156 -18.4140 -0.0732 -1.7456 4.8031 5.2723 -0.7021 -7.8222 0.8774 -1.4330 -0.5523 -2.2063 -0.6325 3.7100 -0.7581 -3.1474 -10.1242 0.9948 -4.1576 3.1103 0.2235 -2.0393 2.8018 -0.0000 -0.0000 0.0000 -85.3173 8.0635 46.4408 23.2277 -34.3369 -7.2663 -0.0000 0.0000 -14.1485 8.7793 11.4318 1.7533 -7.1250 0.0000 -0.0000 -16.2009 40.9890 1.6515 -0.0000 -0.0000 0.0000 74.5570 -10.9988 73.8130 -109.4236 58.5253 -76.7380 0.0000 -0.0000 -8.8832 -24.0513 -19.8813 8.6302 7.1250 -0.0000 -0.0000 4.4240 -51.5310 -0.7128
23.3214 16.7640 -32.1848 -3.5807 -0.7004 9.6373 0.0000 0.0000 0.0000 -16.8803 -6.6192 -23.8892 3.8978 12.0231 35.8138 0.8788 -8.9352 -16.9304 2.5932 10.0055 28.9945 0.0000 0.0000 0.0000 24.9950 6.8653 -18.8739 -2.6637 -10.1296 29.3974 -0.9382 -0.3115 -18.4246 -0.0732 -1.7451 4.8018 5.3071 -0.7049 -7.8296 0.8783 -1.4410 -0.5373 -2.2260 -0.6352 3.7283 -0.7437 -3.1452 -10.0787 0.9661 -4.1548 3.0743 0.2130 -2.0391 2.7798 -0.0000 -0.0000 0.0000 -85.3416 8.0533 46.4221 23.2152 -34.3233 -7.2593 -0.0000 0.0000 -14.1370 8.7929 11.4427 1.7577 -7.1250 0.0000 -0.0000 -16.1922 41.0007 1.6457 -0.0000 -0.0000 0.0000 74.4423 -10.8940 74.5121 -110.1019 58.4167 -77.3162 0.0000 -0.0000 -7.8403 -23.3613 -20.6791 8.6726 7.1250 -0.0000 -0.0000 5.3441 -52.2526 -0.9563
23.3204 16.7635 -32.1829 -3.5869 -0.6918 9.6321 0.0000 0.0000 0.0000 -16.8690 -6.6180 -23.8694 3.8968 12.0218 35.8092 0.8801 -8.9635 -16.9462 2.6124 10.0394 29.1044 0.0000 0.0000 0.0000 25.0060 6.8626 -18.8582 -2.6640 -10.1301 29.3991 -0.9409 -0.2987 -18.4467 -0.0755 -1.7728 4.8782 5.3300 -0.7073 -7.8363 0.8805 -1.4472 -0.5252 -2.2374 -0.6373 3.7437 -0.7318 -3.1393 -10.0406 0.9439 -4.1473 3.0550 0.2051 -2.0362 2.7650 0.0000 0.0000 0.0000 -85.3664 8.0469 46.4143 23.1984 -34.3051 -7.2498 -0.0000 0.0000 -14.1234 8.8214 11.4994 1.7721 -7.1250 0.0000 -0.0000 -16.1832 41.0581 1.6211 0.0000 0.0000 0.0000 74.3500 -10.7758 75.0776 -111.0348 58.2603 -78.1102 0.0000 -0.0000 -7.0806 -22.7101 -21.6161 8.7646 7.1250 -0.0000 -0.0000 6.2971 -53.1174 -1.2614
23.3195 16.7629 -32.1810 -3.5883 -0.6802 9.6289 0.0000 0.0000 0.0000 -16.8635 -6.6208 -23.8534 3.8965 12.0214 35.8078 0.8815 -8.9914 -16.9629 2.6309 10.0722 29.2107 0.0000 0.0000 0.0000 25.0109 6.8583 -18.8418 -2.6635 -10.1294 29.3967 -0.9441 -0.2804 -18.4712 -0.0788 -1.8103 4.9817 5.3448 -0.7078 -7.8449 0.8835 -1.4501 -0.5181 -2.2432 -0.6381 3.7556 -0.7195 -3.1305 -10.0053 0.9226 -4.1359 3.0400 0.1975 -2.0314 2.7523 0.0000 -0.0000 0.0000 -85.3918 8.0464 46.4202 23.1788 -34.2838 -7.2388 -0.0000 0.0000 -14.1103 8.8636 11.5860 1.7939 -7.1250 0.0000 -0.0000 -16.1707 41.1460 1.5836 0.0000 -0.0000 0.0000 74.2814 -10.6437 75.4850 -112.1952 58.0542 -79.0961 0.0000 -0.0000 -6.5739 -22.0065 -22.6788 8.8571 7.1250 -0.0000 -0.0000 7.3858 -54.0906 -1.6572
